<?xml version="1.0" encoding="utf-8"?>
<!-- Generator: Adobe Illustrator 24.3.0, SVG Export Plug-In . SVG Version: 6.00 Build 0)  -->
<svg version="1.1" id="a34b2483-b408-41ec-8a7f-4b7e340c4e88"
	 xmlns="http://www.w3.org/2000/svg" xmlns:xlink="http://www.w3.org/1999/xlink" x="0px" y="0px" viewBox="0 0 865.8 682.9"
	 style="enable-background:new 0 0 865.8 682.9;" xml:space="preserve">
<style type="text/css">
	.st0{fill:#3F3D56;}
	.st1{fill:#2F2E41;}
	.st2{fill:#F9B499;}
	.st3{fill:#0071F2;}
	.st4{opacity:0.2;enable-background:new    ;}
	.st5{opacity:0.2;fill:#FFFFFF;enable-background:new    ;}
	.st6{fill:#CCCCCC;}
	.st7{fill:#F4A48E;}
	.st8{fill:none;stroke:#CCCCCC;stroke-width:1.97;stroke-miterlimit:10;}
	.st9{fill:#EDEDED;}
	.st10{fill:none;stroke:#FFFFFF;stroke-width:1.65;stroke-linecap:round;stroke-linejoin:round;}
	.st11{fill:#FFFFFF;}
	.st12{fill:none;stroke:#FFFFFF;stroke-width:1.18;stroke-miterlimit:10;}
</style>
<g>
	<path class="st0" d="M333.9,584.8L316.6,494l-3.7,90.8h-33.8L274,449.5c25.4,10.7,85.2,0,85.2,0l13.3,135.2H333.9z"/>
	<path class="st1" d="M333.9,584.8L316.6,494l-3.7,90.8h-33.8L274,449.5c25.4,10.7,85.2,0,85.2,0l13.3,135.2H333.9z"/>
	<path class="st2" d="M304.4,332.2l0.3,5.5c0,1.4-1.8,1.2-1.8,1.2v12c7.2,4.7,24.5,0,24.5,0l1.4-9.4c-3.7-2-5.4-19-5.7-22.7
		c-0.1-0.4-0.1-0.7-0.1-0.7L304.4,332.2z"/>
	<path class="st3" d="M366.9,417.4c-2.8,5-12.7,37.8-12.7,37.8c2.8,5.5,19.6,10.2,19.6,10.2c11.5-16.3,16.5-53.6,16.5-53.6
		c-4.4-18.7-11.8-36.5-22-52.8c-0.6-0.9-1.4-1.6-2.3-2.1c-5.5-2.9-25.5-13.1-30.6-12.3l-12.8,24.6c-3.2,21.5-1.5,106.4-1.5,106.4
		c5.2,1.7,36.1-10.2,36.1-10.2l3.9-63.4C366,416.5,366.8,417.4,366.9,417.4z"/>
	<path class="st3" d="M269.8,470.6l1.1-39.4c-1.7,9.1-9.4,7.5-9.4,7.5l-6.1-49.7l2.8,2.6l3.9-17.5c3-20.4,36.6-34.4,36.6-34.4
		l4.2,31.3l-1.9,104.6C280.8,475.8,269.8,470.6,269.8,470.6z"/>
	<path class="st4" d="M261,434.7l0.5,4c8.1,1.4,9.4-7.5,9.4-7.5l1.1-32C270.7,434.8,261,434.7,261,434.7z"/>
	<path class="st2" d="M357.6,458.6c-0.8,0.6-1.9,0.9-2.9,0.8c-3.3-0.1-6.5,0.9-9.3,2.6c-2.7,1.8-5,4.1-6.9,6.7
		c-0.3,0.5-0.5,1.1-0.5,1.7c0,1.7,1.4,3,3,3l0,0c1.7,0,5.7-4.2,5.7-4.2c4.5,4,15.1,9.4,15.1,9.4c6.8-3.3,8.6-14.3,8.6-14.3
		C366.1,464.2,357.6,458.6,357.6,458.6z"/>
	<polygon class="st1" points="245.7,584.8 279.2,584.8 256.5,397.3 224.4,400.5 	"/>
	<polygon class="st5" points="267.1,584.8 255.4,584.8 235.4,399.2 246.1,398.3 266.5,580 	"/>
	<polygon class="st1" points="223.2,390 224.4,400.5 256.5,397.3 255.4,386 	"/>
	<polygon class="st4" points="223.2,390 224.4,400.5 256.5,397.3 255.4,386 	"/>
	<path class="st1" d="M254.4,374.8c-0.6-6.7-6.5-11.6-13.2-11l-8.2,0.8c0,0,0,0-0.1,0c-6.7,0.7-11.5,6.6-10.9,13.2l1.1,12.2l32.2-4
		L254.4,374.8C254.4,374.8,254.4,374.8,254.4,374.8z"/>
	<path class="st2" d="M243.8,368.6c0.1,0,0.3,0,0.4,0c2-0.2,3.4-2.1,3.1-4c-0.9-7-14.7-5.3-14.7-5.3c-15.5,1.7-14.7,14.1-14.7,14.1
		c0.2,10.7,8.6,7.9,8.6,7.9c17.5-4.1,10.3-15.7,10.3-15.7C240,367.9,242.2,368.6,243.8,368.6z"/>
	<path class="st6" d="M301.3,454.2l1.5-83.1v-20.1c6.5,4.5,24.5,0,24.5,0c-1.1,7.5-4.8,18.2-4.8,18.2c-2.3,16-2,84.8-2,84.8
		L301.3,454.2z"/>
	<polygon class="st4" points="360.1,418.8 353,392.1 360.8,408.3 	"/>
	<path class="st4" d="M346.2,461.5c2.6-1.3,5.5-2,8.5-2.1l0,0c1,0,2-0.3,2.9-0.8l0,0c-1.5-0.8-2.6-2-3.4-3.4l4.6-16.3l0.4-6.5
		l-8.3,22.4c-8.7,2-15.3,8.9-16.9,17.6v1l4.3-1.3c-0.9-1,0.1-3.2,0.1-3.2C340.5,464.9,346.2,461.5,346.2,461.5"/>
	<path class="st3" d="M327.3,339.7c-0.1,10-1.7,19.9-4.7,29.4l10-5.5l-1.3-6.1l8.8-1.9C338.9,340.7,327.3,339.7,327.3,339.7z"/>
	<path class="st5" d="M327.3,339.7c-0.1,10-1.7,19.9-4.7,29.4l10-5.5l-1.3-6.1l8.8-1.9C338.9,340.7,327.3,339.7,327.3,339.7z"/>
	<path class="st3" d="M293.7,363.9l2.1-4.8c0-0.1,0-0.1,0.1-0.2c0.2-0.7-0.2-1.5-1-1.7l-7.7-2.2c8.6-18.8,15.6-16.1,15.6-16.1v32.1
		L293.7,363.9z"/>
	<path class="st5" d="M293.7,363.9l2.1-4.8c0-0.1,0-0.1,0.1-0.2c0.2-0.7-0.2-1.5-1-1.7l-7.7-2.2c8.6-18.8,15.6-16.1,15.6-16.1v32.1
		L293.7,363.9z"/>
	<path class="st7" d="M320.6,328.4c-3.3,7.6-16.1,7.2-16.1,7.2l0.1,2.1C318.5,337.8,320.6,328.4,320.6,328.4z"/>
	<path class="st2" d="M307.8,292.3c7.5,0,13.9,6.3,16.1,15c0.8-0.8,2-1.3,3.2-1.3c3.1,0,5.5,3.3,5.5,7.4s-2.5,7.4-5.5,7.4
		c-1,0-2.1-0.4-2.8-1.1c-1.9,9.4-8.5,16.4-16.4,16.4c-9.4,0-17-9.8-17-21.9C290.8,302.1,298.4,292.3,307.8,292.3z"/>
	<path class="st1" d="M321.2,307.8c1.4-0.3,2.8-0.7,4.1-1.4c1.6-0.7,3.4-0.5,4.7,0.7c4.5,3.6,1.9,10,1.9,10
		c-2.8,5.9-7.6,2.6-7.6,2.6l-0.6,2.3c14.9,2.3,7.9-12.9,7.9-12.9c9.5-7,1-14.1,1-14.1c3.1-11.8-9.8-11.1-9.8-11.1
		c-10.6-14.7-23.2-2.8-23.2-2.8c-11.8-4.1-13.9,2.3-13.9,2.3c-5.7,7.7,0,13.4,0,13.4c9,8.2,20.3,0,20.3,0c4.8,2.9,13.2,1.3,13.2,1.3
		l1.5,9.8L321.2,307.8z"/>
</g>
<path class="st1" d="M658.6,129.8H534.3c-1.7,0-3,1.3-3,3v31.4c0,1.7,1.3,3,3,3h11.2v10.3l13-10.3h100c1.7,0,3-1.3,3-3v-31.4
	C661.5,131.1,660.2,129.8,658.6,129.8z"/>
<path class="st0" d="M518.4,584.9l13.3-135.2c0,0,59.8,10.7,85.2,0l-5.2,135.2H578l-3.7-90.8L557,584.9H518.4z"/>
<path class="st1" d="M518.4,584.9l13.3-135.2c0,0,59.8,10.7,85.2,0l-5.2,135.2H578l-3.7-90.8L557,584.9H518.4z"/>
<path class="st1" d="M404.8,445.7l-21.2,139.2h34.2l21-91.2c0.4-1.7,1.9-2.9,3.6-2.9l0,0c1.7,0,3.2,1.2,3.6,2.9l21.1,91.2h35.7
	l-20.3-139.2H404.8z"/>
<path class="st0" d="M396.8,435.8v6.8c0,3.1,2.3,5.7,5.4,6.1c14.5,1.8,55.5,7,80,0.4c3.1-0.9,5.2-3.8,4.9-7.1l-0.5-5.2L438,424.6
	L396.8,435.8z"/>
<path class="st3" d="M396.8,435.8v6.8c0,3.1,2.3,5.7,5.4,6.1c14.5,1.8,55.5,7,80,0.4c3.1-0.9,5.2-3.8,4.9-7.1l-0.5-5.2L438,424.6
	L396.8,435.8z"/>
<path class="st5" d="M396.8,435.8v6.8c0,3.1,2.3,5.7,5.4,6.1c14.5,1.8,55.5,7,80,0.4c3.1-0.9,5.2-3.8,4.9-7.1l-0.5-5.2L438,424.6
	L396.8,435.8z"/>
<path class="st3" d="M489,408.4l-62.5-11l-6.9,14.5l-2.7,6.5l21.8,8.9c0,0,61.5,23.8,70.1,3.3c0,0,5.2-8.7,0.3-27.8
	c-0.2-0.7-0.3-1.4-0.4-2.1c-1-6.3-7.1-40.8-27.3-49.2c0,0-14.5-5.9-18.6-6.6h-41.7c0,0-30.6,4.3-38.2,27.4c0,0-11,26.9-10.8,46.2
	c0,0-1.7,19.2,15.7,20c0,0,35.3-0.1,51-11.1l-21.8-8.9l2.7-6.5c-5-0.6-10-0.6-14.9,0c0,0,3.4-8.9,3.6-17.4"/>
<path class="st5" d="M489,408.4l-62.5-11l-6.9,14.5l-2.7,6.5l21.8,8.9c0,0,61.5,23.8,70.1,3.3c0,0,5.2-8.7,0.3-27.8
	c-0.2-0.7-0.3-1.4-0.4-2.1c-1-6.3-7.1-40.8-27.3-49.2c0,0-14.5-5.9-18.6-6.6h-41.7c0,0-30.6,4.3-38.2,27.4c0,0-11,26.9-10.8,46.2
	c0,0-1.7,19.2,15.7,20c0,0,35.3-0.1,51-11.1l-21.8-8.9l2.7-6.5c-5-0.6-10-0.6-14.9,0c0,0,3.4-8.9,3.6-17.4"/>
<path class="st4" d="M426.5,397.4c-1.8,2.9-2.9,6.3-4.7,10c-1.8,3.6-3.4,7.3-4.8,11c5.3,2.3,11,4.5,16.8,6.8
	c9.3,3.6,20.3,7.6,27.3,9.1c0,0,25.6,7.2,37.9,3.6c0,0,12.5,0.2,12.3-20.5l-0.6-7.7l-21.6-1.3L426.5,397.4z"/>
<path class="st3" d="M425.3,338.4c0,0,16.3-5.6,31.8-0.3c-1.7,2.8-3.5,5.7-5.5,8.6c-3.3,4.9-6.7,9.3-9.9,13.3L425.3,338.4z"/>
<path class="st5" d="M425.3,338.4c0,0,16.3-5.6,31.8-0.3c-1.7,2.8-3.5,5.7-5.5,8.6c-3.3,4.9-6.7,9.3-9.9,13.3L425.3,338.4z"/>
<polygon class="st3" points="429.5,363.8 421.1,344.7 425.3,338.4 438.5,355.8 "/>
<polygon class="st3" points="444.9,356.5 453.7,363.8 462.8,344.7 457.1,338.1 "/>
<polygon class="st2" points="431.6,327 429.5,344 441.7,360 444.9,356.2 453.4,343.5 450.8,327 "/>
<path class="st2" d="M408,399.3c0,0,13.8-0.3,16.8,1.7l-5.1,10.8c0,0-12.2-0.9-14.9,0C404.8,411.9,407.5,403.5,408,399.3z"/>
<path class="st2" d="M469.2,404.9c0,0,6.5-11.1,17.6-12c3.1-0.2,6.1,0.8,8.4,2.9l0,0c1.8,1.6,1.9,4.3,0.3,6.1
	c-0.1,0.1-0.1,0.1-0.2,0.2l-6.4,6.3L469.2,404.9z"/>
<path class="st2" d="M567.9,318.3c0,0,0,0.3-0.1,0.7c-0.3,3.7-2,20.8-5.7,22.7l1.4,9.4c0,0,17.4,4.7,24.5,0v-12c0,0-1.8,0.1-1.8-1.2
	l0.3-5.5L567.9,318.3z"/>
<path class="st3" d="M529.9,402.1l3.9,63.4c0,0,30.9,11.9,36.1,10.2c0,0,1.7-84.9-1.5-106.4l-12.8-24.6c-5.1-0.8-25.1,9.4-30.6,12.3
	c-0.9,0.5-1.7,1.2-2.3,2.1c-10.2,16.3-17.6,34.1-22,52.8c0,0,5,37.4,16.5,53.6c0,0,16.8-4.7,19.6-10.2c0,0-9.9-32.8-12.7-37.8
	C524.1,417.5,524.9,416.7,529.9,402.1z"/>
<path class="st3" d="M590,475.9l-1.9-104.6l4.2-31.3c0,0,33.5,14,36.6,34.4l3.9,17.5l2.8-2.6l-6.1,49.7c0,0-7.7,1.6-9.4-7.5
	l1.1,39.4C621.2,470.8,610.1,476,590,475.9z"/>
<path class="st4" d="M618.9,399.3l1.1,32c0,0,1.3,8.9,9.4,7.5l0.5-4C629.9,434.8,620.2,435,618.9,399.3z"/>
<path class="st2" d="M520.7,464.4c0,0,1.8,11,8.6,14.3c0,0,10.6-5.3,15.1-9.4c0,0,4,4.2,5.7,4.2l0,0c1.7,0,3-1.3,3-3
	c0-0.6-0.2-1.2-0.5-1.7c-1.9-2.6-4.2-4.9-6.9-6.7c-2.8-1.8-6-2.7-9.3-2.6c-1,0.1-2.1-0.2-2.9-0.8
	C533.3,458.7,524.8,464.4,520.7,464.4z"/>
<polygon class="st1" points="666.5,400.7 634.5,397.5 611.8,584.9 645.2,584.9 "/>
<polygon class="st5" points="624.4,580.2 644.9,398.5 655.5,399.4 635.5,584.9 623.8,584.9 "/>
<polygon class="st1" points="635.5,386.2 634.5,397.5 666.5,400.7 667.7,390.1 "/>
<polygon class="st4" points="635.5,386.2 634.5,397.5 666.5,400.7 667.7,390.1 "/>
<path class="st1" d="M636.5,375l-1,11.2l32.2,4l1.1-12.2c0.7-6.7-4.2-12.6-10.9-13.2c0,0,0,0-0.1,0l-8.2-0.8
	C643,363.4,637.1,368.3,636.5,375C636.5,375,636.5,375,636.5,375z"/>
<path class="st2" d="M653.9,365.7c0,0-7.1,11.6,10.3,15.7c0,0,8.4,2.8,8.6-7.9c0,0,0.9-12.4-14.7-14.1c0,0-13.8-1.7-14.7,5.3
	c-0.2,2,1.2,3.8,3.1,4c0.1,0,0.3,0,0.4,0C648.7,368.8,650.9,368.1,653.9,365.7z"/>
<path class="st6" d="M570.3,454c0,0,0.4-68.8-2-84.8c0,0-3.7-10.7-4.8-18.2c0,0,18,4.5,24.5,0v20.1l1.5,83.1L570.3,454z"/>
<path class="st3" d="M407.4,390.9l0.6,8.4c0,0,13.6-0.2,16.8,1.7l2.5-5.1L407.4,390.9z"/>
<path class="st5" d="M407.4,390.9l0.6,8.4c0,0,13.6-0.2,16.8,1.7l2.5-5.1L407.4,390.9z"/>
<polygon class="st4" points="530.2,408.5 537.9,392.3 530.8,418.9 "/>
<path class="st4" d="M544.7,461.7c0,0,5.7,3.4,7.8,7.2c0,0,1.1,2.2,0.1,3.2l4.3,1.3v-1c-1.6-8.7-8.2-15.7-16.9-17.6l-8.3-22.4
	l0.4,6.5l4.6,16.3c-0.8,1.4-2,2.6-3.4,3.4l0,0c0.9,0.5,1.9,0.8,2.9,0.8l0,0C539.2,459.6,542.1,460.3,544.7,461.7"/>
<path class="st3" d="M550.8,355.8l8.8,1.9l-1.3,6.1l10,5.5c-3-9.5-4.6-19.4-4.7-29.4C563.7,339.9,552,340.9,550.8,355.8z"/>
<path class="st5" d="M550.8,355.8l8.8,1.9l-1.3,6.1l10,5.5c-3-9.5-4.6-19.4-4.7-29.4C563.7,339.9,552,340.9,550.8,355.8z"/>
<path class="st3" d="M588.1,371.2v-32.1c0,0,7-2.8,15.6,16.1l-7.7,2.2c-0.7,0.2-1.2,1-1,1.7c0,0.1,0,0.1,0.1,0.2l2.1,4.8
	L588.1,371.2z"/>
<path class="st5" d="M588.1,371.2v-32.1c0,0,7-2.8,15.6,16.1l-7.7,2.2c-0.7,0.2-1.2,1-1,1.7c0,0.1,0,0.1,0.1,0.2l2.1,4.8
	L588.1,371.2z"/>
<line class="st8" x1="137.3" y1="247.1" x2="750.2" y2="247.1"/>
<path class="st8" d="M143.8,207h599.9c3.6,0,6.5,2.9,6.5,6.5v366.2c0,3.6-2.9,6.5-6.5,6.5H143.8c-3.6,0-6.5-2.9-6.5-6.5V213.5
	C137.3,209.9,140.2,207,143.8,207z"/>
<path class="st1" d="M177.7,227.5c0,3.1-2.5,5.6-5.6,5.6s-5.6-2.5-5.6-5.6s2.5-5.6,5.6-5.6S177.7,224.4,177.7,227.5L177.7,227.5z"/>
<path class="st5" d="M177.7,227.5c0,3.1-2.5,5.6-5.6,5.6s-5.6-2.5-5.6-5.6s2.5-5.6,5.6-5.6S177.7,224.4,177.7,227.5L177.7,227.5z"/>
<path class="st6" d="M199.5,227.5c0,3.1-2.5,5.6-5.6,5.6s-5.6-2.5-5.6-5.6s2.5-5.6,5.6-5.6S199.5,224.4,199.5,227.5L199.5,227.5z"/>
<path class="st1" d="M221.2,227.5c0,3.1-2.5,5.6-5.6,5.6s-5.6-2.5-5.6-5.6s2.5-5.6,5.6-5.6S221.2,224.4,221.2,227.5L221.2,227.5z"/>
<path class="st9" d="M684.5,234.5h146.8c3.3,0,6,2.7,6,6v136c0,3.3-2.7,6-6,6H684.5c-3.3,0-6-2.7-6-6v-136
	C678.5,237.2,681.1,234.5,684.5,234.5z"/>
<path class="st8" d="M684.5,234.5h146.8c3.3,0,6,2.7,6,6v136c0,3.3-2.7,6-6,6H684.5c-3.3,0-6-2.7-6-6v-136
	C678.5,237.2,681.1,234.5,684.5,234.5z"/>
<path class="st6" d="M796.9,344h-77.6c-3.3,0-6-2.7-6-6v-64.1c0-3.3,2.7-6,6-6h77.6c3.3,0,6,2.7,6,6V338
	C802.9,341.3,800.2,344,796.9,344z"/>
<polygon class="st10" points="778.5,318.6 743.5,318.6 737.2,318.6 737.2,290.8 778.5,290.8 778.5,297.8 "/>
<polyline class="st10" points="737.2,290.8 757.8,307.1 778.5,290.8 "/>
<path class="st9" d="M32.9,358.1h140c3.2,0,5.7,2.6,5.7,5.7v122.4c0,3.2-2.6,5.7-5.7,5.7h-140c-3.2,0-5.7-2.6-5.7-5.7V363.9
	C27.1,360.7,29.7,358.1,32.9,358.1z"/>
<path class="st8" d="M32.9,358.1h140c3.2,0,5.7,2.6,5.7,5.7v122.4c0,3.2-2.6,5.7-5.7,5.7h-140c-3.2,0-5.7-2.6-5.7-5.7V363.9
	C27.1,360.7,29.7,358.1,32.9,358.1z"/>
<path class="st6" d="M65.2,381.1h74.3c3.7,0,6.6,3,6.6,6.6v71.8c0,3.7-3,6.6-6.6,6.6H65.2c-3.7,0-6.6-3-6.6-6.6v-71.8
	C58.5,384,61.5,381.1,65.2,381.1z"/>
<path class="st11" d="M85.3,406.9c-9.7,9.7-9.7,25.3,0,35c9.7,9.7,25.3,9.7,35,0c9.7-9.7,9.7-25.3,0-35c0,0,0,0,0,0
	C110.7,397.3,95,397.3,85.3,406.9z M120.3,410.5h-7.9c-0.8-2.6-1.9-5-3.1-7.4C113.7,404.4,117.5,407,120.3,410.5L120.3,410.5z
	 M93.8,423c0-3.2,0.4-6.5,1.2-9.6h15.8c0.8,3.1,1.2,6.4,1.2,9.6H93.8z M111.8,425.9c-0.2,3.2-0.8,6.5-1.7,9.6H95.6
	c-0.9-3.1-1.5-6.3-1.7-9.6H111.8z M102.8,402.1c1.2,0,2.3,0.1,3.5,0.3c1.5,2.6,2.7,5.3,3.6,8.1H95.8c0.9-2.8,2.1-5.5,3.6-8.1
	C100.5,402.2,101.7,402.1,102.8,402.1L102.8,402.1z M96.4,403.1c-1.2,2.4-2.2,4.9-3.1,7.4h-7.9C88.2,407,92,404.4,96.4,403.1
	L96.4,403.1z M83.4,413.4h9c-0.8,3.2-1.2,6.4-1.2,9.6H80.6C80.8,419.6,81.8,416.3,83.4,413.4z M83.4,435.5c-1.7-2.9-2.7-6.2-2.9-9.6
	h10.7c0.2,3.2,0.7,6.5,1.5,9.6H83.4z M85.4,438.4h8.2c0.8,2.6,1.8,5.1,3,7.5C92.2,444.6,88.3,442,85.4,438.4L85.4,438.4z
	 M102.9,446.8c-1,0-2-0.1-2.9-0.2c-1.3-2.7-2.5-5.4-3.5-8.2h12.8c-1,2.8-2.1,5.5-3.5,8.2C104.8,446.7,103.8,446.8,102.9,446.8
	L102.9,446.8z M109.1,445.9c1.2-2.4,2.2-4.9,3.1-7.5h8.2C117.4,442,113.5,444.6,109.1,445.9L109.1,445.9z M122.3,435.5H113
	c0.8-3.1,1.3-6.4,1.5-9.6h10.7C125,429.3,124,432.5,122.3,435.5L122.3,435.5z M125.2,423h-10.7c-0.1-3.2-0.5-6.5-1.3-9.6h9
	C123.9,416.3,124.9,419.6,125.2,423L125.2,423z"/>
<path class="st6" d="M187.7,172H63.3c-2.6,0-4.7-2.1-4.7-4.6c0,0,0,0,0,0l0,0c0-2.6,2.1-4.7,4.6-4.7c0,0,0,0,0,0h124.5
	c2.6,0,4.7,2.1,4.7,4.7l0,0l0,0C192.4,169.9,190.3,172,187.7,172z"/>
<path class="st6" d="M834.9,476h-60.4c-2.6,0-4.7-2.1-4.7-4.6c0,0,0,0,0,0l0,0c0-2.6,2.1-4.7,4.6-4.7c0,0,0,0,0,0h60.4
	c2.6,0,4.7,2.1,4.7,4.7l0,0C839.6,473.9,837.5,476,834.9,476z"/>
<path class="st1" d="M784.6,515.9h8.7c1.6,0,2.9,1.3,2.9,2.9v8.2c0,1.6-1.3,2.9-2.9,2.9h-8.7c-1.6,0-2.9-1.3-2.9-2.9v-8.2
	C781.7,517.2,783,515.9,784.6,515.9z"/>
<path class="st1" d="M84.9,548.2h8.7c1.6,0,2.9,1.3,2.9,2.9v8.2c0,1.6-1.3,2.9-2.9,2.9h-8.7c-1.6,0-2.9-1.3-2.9-2.9V551
	C82,549.4,83.3,548.2,84.9,548.2z"/>
<line class="st12" x1="549.1" y1="143.1" x2="636.5" y2="143.1"/>
<line class="st12" x1="549.1" y1="152.1" x2="584.7" y2="152.1"/>
<path class="st6" d="M292.6,95.7h64.9c3.6,0,6.5,2.9,6.5,6.5v60.8c0,3.6-2.9,6.5-6.5,6.5h-62.9c-4.7,0-8.5-3.8-8.5-8.5v-58.7
	C286.1,98.6,289,95.7,292.6,95.7z"/>
<path class="st11" d="M343.2,138l-4.4-4.4c-0.7-0.8-1.8-1.3-2.9-1.3c-1.1,0-2.1,0.5-2.9,1.3l-2.5,2.5l-0.5-0.2
	c-0.3-0.1-0.5-0.3-0.8-0.4c-2.5-1.6-4.7-3.7-6.6-6c-0.8-1-1.5-2.1-2.1-3.2c0.6-0.6,1.2-1.2,1.7-1.7l0.7-0.7c1.6-1.4,1.8-3.8,0.4-5.5
	c-0.1-0.1-0.3-0.3-0.4-0.4l-2.2-2.2c-0.3-0.2-0.5-0.5-0.7-0.8l-1.5-1.5c-0.7-0.8-1.8-1.2-2.9-1.3c-1.1,0-2.1,0.5-2.9,1.3l-2.8,2.8
	c-1,1-1.7,2.4-1.8,3.9c-0.1,2,0.2,4.1,1,6c1.4,3.8,3.5,7.3,6.2,10.4c3.5,4.2,7.8,7.5,12.7,9.9c2.2,1.1,4.6,1.9,7.1,2.1h0.5
	c1.8,0,3.5-0.7,4.8-2.1l0.1-0.1c0.4-0.5,0.9-1,1.4-1.4l1-1c1.6-1.5,1.7-4,0.2-5.7C343.3,138.1,343.3,138,343.2,138z M341.4,142.1
	l-1,1c-0.5,0.5-1,1-1.6,1.6c-0.7,0.8-1.8,1.2-2.9,1.2h-0.4c-2.2-0.2-4.3-0.9-6.2-1.9c-4.5-2.2-8.6-5.4-11.8-9.3
	c-2.4-2.9-4.4-6.1-5.8-9.6c-0.7-1.5-1.1-3.2-1-4.9c0-0.9,0.4-1.7,1.1-2.3l2.7-2.7c0.3-0.3,0.7-0.5,1.1-0.6c0.4,0,0.8,0.2,1.1,0.6
	l1.4,1.4c0.2,0.3,0.5,0.6,0.8,0.8l2.2,2.2c0.3,0.3,0.5,0.7,0.5,1.1c0,0.4-0.2,0.8-0.5,1.1l-0.7,0.7l-2,2l-0.1,0.1
	c-0.6,0.5-0.8,1.3-0.5,2v0.1c0.7,1.5,1.5,3,2.6,4.3c2,2.6,4.5,4.8,7.2,6.6c0.3,0.2,0.6,0.4,1,0.6c0.3,0.1,0.5,0.3,0.8,0.4l0.1,0.1
	c0.7,0.4,1.7,0.2,2.2-0.4l2.8-2.8c0.3-0.3,0.7-0.5,1.1-0.6c0.4,0.1,0.7,0.3,1,0.6l4.4,4.4c0.6,0.5,0.7,1.5,0.2,2.1
	C341.5,142,341.4,142.1,341.4,142.1L341.4,142.1z"/>
<path class="st7" d="M431,332.7l0.7-5.7c0,0,7.8,4.6,13.9,5C445.6,332,443.1,334.9,431,332.7z"/>
<ellipse class="st2" cx="441.2" cy="309.2" rx="18.1" ry="23.5"/>
<ellipse class="st2" cx="461.5" cy="309.3" rx="4.9" ry="6.8"/>
<ellipse class="st2" cx="420.5" cy="309.3" rx="4.9" ry="6.8"/>
<path class="st1" d="M423.9,306.2c0,0-11.8-11.2,0-19.9c0,0,3.1-15.8,23.2-11.8c0,0,19.5,0.1,15.7,27.9c-1.3,1.4-2.7,2.6-4.3,3.7
	c0,0-1.5-9.2-8.8-8.8c0,0-16,0.7-19.1-6.2C427.1,295.5,424.9,300.7,423.9,306.2z"/>
<path class="st7" d="M586.3,337.9l0.1-2.1c0,0-12.8,0.4-16.1-7.2C570.3,328.6,572.4,338,586.3,337.9z"/>
<path class="st2" d="M600.1,314.3c0,12.1-7.6,21.9-17,21.9c-7.9,0-14.5-7-16.4-16.4c-0.8,0.7-1.8,1.1-2.8,1.1
	c-3.1,0-5.5-3.3-5.5-7.4s2.5-7.4,5.5-7.4c1.2,0,2.3,0.5,3.2,1.3c2.2-8.7,8.6-15,16.1-15C592.5,292.5,600.1,302.2,600.1,314.3z"/>
<path class="st1" d="M570.2,308l1.5-9.8c0,0,8.4,1.6,13.2-1.3c0,0,11.3,8.2,20.3,0c0,0,5.7-5.7,0-13.4c0,0-2.1-6.4-13.9-2.3
	c0,0-12.6-11.8-23.2,2.8c0,0-12.8-0.7-9.8,11.1c0,0-8.5,7.1,1,14.1c0,0-7,15.2,7.9,12.9l-0.6-2.3c0,0-4.8,3.3-7.6-2.6
	c0,0-2.6-6.4,1.9-10c1.3-1.2,3.1-1.5,4.7-0.7c1.3,0.7,2.7,1.1,4.1,1.4L570.2,308z"/>
</svg>
